<?xml version="1.0" encoding="UTF-8" standalone="no"?>
<!-- Created with Inkscape (http://www.inkscape.org/) -->

<svg
   version="1.1"
   id="svg1"
   width="213.991"
   height="214.0621"
   viewBox="0 0 213.991 214.0621"
   sodipodi:docname="social_icons_rounded_black.png"
   xmlns:inkscape="http://www.inkscape.org/namespaces/inkscape"
   xmlns:sodipodi="http://sodipodi.sourceforge.net/DTD/sodipodi-0.dtd"
   xmlns="http://www.w3.org/2000/svg"
   xmlns:svg="http://www.w3.org/2000/svg">
  <defs
     id="defs1" />
  <sodipodi:namedview
     id="namedview1"
     pagecolor="#ffffff"
     bordercolor="#000000"
     borderopacity="0.25"
     inkscape:showpageshadow="2"
     inkscape:pageopacity="0.0"
     inkscape:pagecheckerboard="0"
     inkscape:deskcolor="#d1d1d1"
     showgrid="false" />
  <g
     inkscape:groupmode="layer"
     inkscape:label="Image"
     id="g1"
     transform="translate(-356.39877,-502.0466)">
    <path
       style="fill:#000000"
       d="m 409.84548,715.52208 c -32.45451,-2.86515 -46.49622,-14.27309 -51.67204,-41.98 -1.56288,-8.36633 -1.77466,-16.06336 -1.77466,-64.50002 0,-48.4366 0.21178,-56.13367 1.77466,-64.49997 4.53679,-24.2861 16.43469,-36.184 40.72082,-40.7208 8.36633,-1.5629 16.06336,-1.7747 64.5,-1.7747 48.43664,0 56.13367,0.2118 64.5,1.7747 24.28613,4.5368 36.18403,16.4347 40.72082,40.7208 1.56288,8.3663 1.77466,16.06337 1.77466,64.49997 0,48.43666 -0.21178,56.13369 -1.77466,64.50002 -3.40932,18.25058 -10.94553,29.33542 -24.22082,35.62584 -12.73647,6.03511 -18.16891,6.53717 -74.5,6.88517 -27.775,0.17159 -54.79695,-0.0674 -60.04878,-0.53101 z m 79.78622,-46.92804 c 10.88275,-1.05305 17.9097,-3.9247 23.64976,-9.66476 8.50267,-8.50272 10.55861,-18.21652 10.55861,-49.88722 0,-31.6706 -2.05594,-41.3845 -10.55861,-49.8872 -8.50267,-8.50267 -18.21655,-10.55857 -49.8872,-10.55857 -31.58322,0 -41.29929,2.0427 -49.8893,10.48857 -8.44687,8.3052 -10.55651,18.2887 -10.55651,49.9572 0,22.8798 1.16931,34.1422 4.22955,40.7375 5.06364,10.91283 15.03762,17.45493 28.58989,18.75256 11.09973,1.06279 43.13968,1.09963 53.86381,0.0619 z m -58.37925,-11.97391 c -5.33622,-1.32683 -10.25334,-5.04365 -13.11704,-9.91507 l -2.74115,-4.663 v -33 -33 l 2.77658,-4.7234 c 1.80051,-3.063 4.43703,-5.6995 7.5,-7.5 l 4.72342,-2.7766 h 33 33 l 4.72342,2.7766 c 3.06297,1.8005 5.69949,4.437 7.5,7.5 l 2.77658,4.7234 v 33 33 l -2.77658,4.7234 c -1.80051,3.063 -4.43703,5.69953 -7.5,7.50004 l -4.72342,2.77658 -31,0.17963 c -17.05,0.0988 -32.41381,-0.17192 -34.14181,-0.60158 z m 43.13193,-18.82137 c 7.022,-2.219 15.54845,-10.846 17.99261,-18.2047 4.0103,-12.0739 1.42238,-23.3069 -7.40273,-32.132 -8.82511,-8.8251 -20.05812,-11.413 -32.13198,-7.4027 -7.50604,2.4931 -15.93765,10.9247 -18.43075,18.4307 -6.12328,18.4355 4.73386,37.2729 23.61447,40.9717 5.04995,0.9893 9.34834,0.5523 16.35838,-1.663 z m -18.99012,-10.6494 c -4.16496,-1.8248 -9.23536,-7.2754 -10.59204,-11.3862 -1.67776,-5.0836 -0.68158,-13.4683 2.07879,-17.4968 4.1982,-6.1269 8.40953,-8.2243 16.51325,-8.2243 5.91206,0 7.75404,0.4163 10.66345,2.4098 7.00185,4.7978 10.07279,12.687 8.40305,21.5874 -0.81345,4.3361 -6.7504,11.2576 -11.28438,13.1557 -4.05153,1.6961 -11.85837,1.6736 -15.78212,-0.046 z m 45.04545,-45.0618 c 1.35,-1.35 2.45455,-3.6205 2.45455,-5.0455 0,-3.3341 -4.16589,-7.5 -7.5,-7.5 -3.33411,0 -7.5,4.1659 -7.5,7.5 0,3.3341 4.16589,7.5 7.5,7.5 1.425,0 3.69545,-1.1045 5.04545,-2.4545 z"
       id="path1"
       sodipodi:nodetypes="cssssssssssscssssssssssssscccsscccsscccsscssssssssscssssssccssssss" />
  </g>
</svg>
