<svg xmlns="http://www.w3.org/2000/svg" viewBox="0 0 213.991 214.062"><path d="M53.447 213.475c-32.455-2.865-46.497-14.273-51.672-41.98C.212 163.13 0 155.432 0 106.995c0-48.436.212-56.133 1.775-64.5C6.31 18.21 18.209 6.311 42.495 1.775 50.862.212 58.56 0 106.995 0c48.437 0 56.134.212 64.5 1.775 24.287 4.536 36.185 16.434 40.721 40.72 1.563 8.367 1.775 16.064 1.775 64.5 0 48.437-.212 56.134-1.775 64.5-3.409 18.251-10.945 29.336-24.22 35.626-12.737 6.035-18.17 6.537-74.5 6.885-27.776.172-54.797-.067-60.05-.53zm73.257-46.278c4.24-1.355 9.766-3.669 12.281-5.143l4.574-2.68-4.128-4.69c-2.27-2.578-4.422-4.66-4.782-4.627-.36.034-3.129 1.212-6.154 2.62-18.846 8.766-39.9 5.262-55.38-9.219-10.397-9.726-15.62-21.943-15.62-36.539 0-25.005 17.952-45.689 43-49.543 21.479-3.304 43.147 8.586 52.839 28.994 3.193 6.725 3.566 8.428 3.966 18.136.645 15.661-1.895 21.39-9.484 21.39-2.667 0-4.184-.703-5.95-2.756-2.13-2.477-2.37-3.708-2.37-12.163 0-15.686-5.724-26.25-17.46-32.227-5.858-2.983-16.707-4.107-23.056-2.39-14.244 3.853-24.786 19.401-23.068 34.022 2.624 22.322 25.822 34.922 46.166 25.073 2.284-1.105 4.954-2.895 5.933-3.976 1.755-1.94 1.838-1.913 6.027 1.949 6.412 5.91 12.63 7.25 20.776 4.475 6.15-2.096 11.664-8.364 14.122-16.054 2.394-7.487 2.435-21.396.089-30.354-5.445-20.79-21.847-38.22-41.951-44.575-35.771-11.308-71.834 8.934-81.162 45.556-2.419 9.498-1.558 26.198 1.818 35.261 12.23 32.834 46.349 49.882 78.974 39.46zm-24.209-41.855c-8.801-2.556-14.71-11.201-13.668-19.999.774-6.532 3.807-11.259 9.289-14.47 3.827-2.244 5.329-2.55 10.792-2.202 7.486.476 12.401 3.579 15.597 9.843 7.379 14.463-6.468 31.342-22.01 26.828z"/></svg>