<?xml version="1.0" encoding="UTF-8" standalone="no"?>
<!-- Created with Inkscape (http://www.inkscape.org/) -->

<svg
   version="1.1"
   id="svg1"
   width="213.99097"
   height="214.0621"
   viewBox="0 0 213.99097 214.0621"
   sodipodi:docname="social_icons_rounded_black.png"
   inkscape:export-filename="mail.svg"
   inkscape:export-xdpi="96"
   inkscape:export-ydpi="96"
   xmlns:inkscape="http://www.inkscape.org/namespaces/inkscape"
   xmlns:sodipodi="http://sodipodi.sourceforge.net/DTD/sodipodi-0.dtd"
   xmlns="http://www.w3.org/2000/svg"
   xmlns:svg="http://www.w3.org/2000/svg">
  <defs
     id="defs1" />
  <sodipodi:namedview
     id="namedview1"
     pagecolor="#ffffff"
     bordercolor="#000000"
     borderopacity="0.25"
     inkscape:showpageshadow="2"
     inkscape:pageopacity="0.0"
     inkscape:pagecheckerboard="0"
     inkscape:deskcolor="#d1d1d1"
     showgrid="false" />
  <g
     inkscape:groupmode="layer"
     inkscape:label="Image"
     id="g1"
     transform="translate(-400.72089,-387.08719)">
    <path
       style="fill:#000000"
       d="m 454.16759,600.56268 c -32.45451,-2.86515 -46.49622,-14.27309 -51.67204,-41.98 -1.56288,-8.36633 -1.77466,-16.06336 -1.77466,-64.5 0,-48.43664 0.21178,-56.13367 1.77466,-64.5 4.53679,-24.28613 16.43469,-36.18403 40.72082,-40.72082 8.36633,-1.56288 16.06336,-1.77466 64.5,-1.77466 48.43664,0 56.13367,0.21178 64.5,1.77466 24.28613,4.53679 36.18403,16.43469 40.72082,40.72082 1.56288,8.36633 1.77466,16.06336 1.77466,64.5 0,48.43664 -0.21178,56.13367 -1.77466,64.5 -3.40932,18.25058 -10.94553,29.33542 -24.22082,35.62584 -12.73647,6.03511 -18.16891,6.53717 -74.5,6.88517 -27.775,0.17159 -54.79695,-0.0674 -60.04878,-0.53101 z m 73.25711,-46.27874 c 4.23958,-1.35431 9.7663,-3.66843 12.28159,-5.14248 l 4.57325,-2.68011 -4.12771,-4.68934 c -2.27025,-2.57913 -4.42196,-4.66172 -4.78159,-4.62799 -0.35963,0.0337 -3.12887,1.21262 -6.15387,2.61974 -18.84657,8.76669 -39.90111,5.26204 -55.3808,-9.21846 -10.39678,-9.72567 -15.6192,-21.94275 -15.6192,-36.53879 0,-25.00552 17.952,-45.68909 43,-49.54287 21.47826,-3.30455 43.14627,8.58516 52.83811,28.99343 3.19356,6.72473 3.56601,8.42795 3.96602,18.13655 0.64525,15.66056 -1.89465,21.38906 -9.48346,21.38906 -2.667,0 -4.1843,-0.70271 -5.95026,-2.75576 -2.13058,-2.47695 -2.37041,-3.7075 -2.37041,-12.16249 0,-15.68613 -5.72364,-26.25082 -17.45985,-32.22739 -5.85723,-2.98275 -16.70635,-4.10731 -23.05553,-2.38981 -14.24451,3.85324 -24.78652,19.40125 -23.0681,34.02228 2.62352,22.32206 25.82238,34.9214 46.16638,25.07304 2.28404,-1.10568 4.95357,-2.89518 5.93229,-3.97665 1.75498,-1.93924 1.83798,-1.9124 6.02745,1.94932 6.41227,5.91062 12.63078,7.24991 20.77602,4.47455 6.1493,-2.09528 11.66376,-8.36378 14.12215,-16.05321 2.39369,-7.48704 2.43429,-21.39625 0.0886,-30.35388 -5.44447,-20.79116 -21.84688,-38.21964 -41.951,-44.57528 -35.77098,-11.3085 -71.83374,8.93363 -81.16167,45.55626 -2.41914,9.49786 -1.55828,26.1977 1.81766,35.26057 12.23073,32.83405 46.34916,49.88149 78.97393,39.45971 z m -24.20833,-41.85427 c -8.80152,-2.55624 -14.71031,-11.20175 -13.6684,-19.99906 0.7737,-6.53261 3.80741,-11.25905 9.28848,-14.47117 3.82726,-2.24292 5.32933,-2.5493 10.79293,-2.2014 7.48514,0.47662 12.40056,3.57872 15.59622,9.84273 7.37882,14.46369 -6.46789,31.34261 -22.00923,26.8289 z"
       id="path1"
       sodipodi:nodetypes="cssssssssssscsscssssssssssssssssssssssssssssss" />
  </g>
</svg>
