<svg xmlns="http://www.w3.org/2000/svg" viewBox="0 0 213.991 214.062"><path d="M53.447 213.476c-32.455-2.866-46.497-14.274-51.672-41.98C.212 163.129 0 155.432 0 106.996c0-48.437.212-56.134 1.775-64.5C6.31 18.208 18.209 6.31 42.495 1.774 50.862.212 58.56 0 106.995 0c48.437 0 56.134.212 64.5 1.775 24.287 4.536 36.185 16.434 40.721 40.72 1.563 8.367 1.775 16.064 1.775 64.5 0 48.437-.212 56.134-1.775 64.5-3.409 18.251-10.945 29.336-24.22 35.626-12.737 6.035-18.17 6.538-74.5 6.886-27.776.171-54.797-.068-60.05-.531zm61.048-78v-15.019l2.75.672c13.516 3.3 22.323 10.392 28.526 22.97l3.154 6.397h23.787l-.67-2.75c-2.755-11.319-16.608-29.383-27.415-35.75-2.8-1.65-5.1-3.277-5.112-3.615-.01-.337 1.778-1.86 3.975-3.382 8.72-6.043 18.322-19.062 21.923-29.725 1.145-3.392 2.082-6.754 2.082-7.473 0-.994-2.58-1.306-10.799-1.306h-10.799l-1.322 3.75c-2.29 6.501-7.808 14.703-13.527 20.112-5.066 4.792-12.235 9.063-15.303 9.117-.95.017-1.25-3.933-1.25-16.479v-16.5h-22v29c0 15.95-.24 29-.533 29-2.324 0-10.885-5.74-14.795-9.92-8.467-9.051-13.491-22.514-15.238-40.83l-.692-7.25H38.495l.004 5.25c.01 13.482 4.707 31.698 11.51 44.643 10.944 20.827 32.736 33.666 57.736 34.014l6.75.094z"/></svg>