<?xml version="1.0" encoding="UTF-8" standalone="no"?>
<!-- Created with Inkscape (http://www.inkscape.org/) -->

<svg
   version="1.1"
   id="svg1"
   width="213.99097"
   height="214.06213"
   viewBox="0 0 213.99097 214.06213"
   sodipodi:docname="social_icons_rounded_black.png"
   inkscape:export-filename="social_icons_rounded_black.svg"
   inkscape:export-xdpi="96"
   inkscape:export-ydpi="96"
   xmlns:inkscape="http://www.inkscape.org/namespaces/inkscape"
   xmlns:sodipodi="http://sodipodi.sourceforge.net/DTD/sodipodi-0.dtd"
   xmlns="http://www.w3.org/2000/svg"
   xmlns:svg="http://www.w3.org/2000/svg">
  <defs
     id="defs1" />
  <sodipodi:namedview
     id="namedview1"
     pagecolor="#ffffff"
     bordercolor="#000000"
     borderopacity="0.25"
     inkscape:showpageshadow="2"
     inkscape:pageopacity="0.0"
     inkscape:pagecheckerboard="0"
     inkscape:deskcolor="#d1d1d1"
     showgrid="false" />
  <g
     inkscape:groupmode="layer"
     inkscape:label="Image"
     id="g1"
     transform="translate(-197.37994,-133.99573)">
    <path
       style="fill:#000000"
       d="m 250.82664,347.47125 c -32.45451,-2.86515 -46.49623,-14.27309 -51.67205,-41.98 -1.56288,-8.36633 -1.77465,-16.06336 -1.77465,-64.50002 0,-48.4366 0.21177,-56.1337 1.77465,-64.5 4.5368,-24.2861 16.43469,-36.184 40.72083,-40.7208 8.36633,-1.5629 16.06336,-1.7747 64.5,-1.7747 48.43664,0 56.13367,0.2118 64.5,1.7747 24.28613,4.5368 36.18403,16.4347 40.72082,40.7208 1.56288,8.3663 1.77466,16.0634 1.77466,64.5 0,48.43666 -0.21178,56.13369 -1.77466,64.50002 -3.40932,18.25058 -10.94553,29.33542 -24.22082,35.62584 -12.73647,6.03511 -18.16891,6.53717 -74.5,6.88517 -27.775,0.17159 -54.79695,-0.0674 -60.04878,-0.53101 z m 61.04878,-77.99902 v -15.0191 l 2.75,0.6715 c 13.51526,3.2999 22.32251,10.3921 28.52507,22.9703 l 3.15419,6.39632 h 11.89378 11.89378 l -0.6695,-2.75002 c -2.75543,-11.318 -16.60844,-29.3821 -27.41604,-35.75 -2.80038,-1.65 -5.10052,-3.2763 -5.11144,-3.614 -0.0109,-0.3377 1.77767,-1.8597 3.97463,-3.3822 8.72022,-6.0431 18.32189,-19.0619 21.92292,-29.7252 1.14543,-3.3918 2.08261,-6.7545 2.08261,-7.4728 0,-0.9938 -2.58025,-1.3058 -10.79911,-1.3058 H 343.2772 l -1.32179,3.75 c -2.29141,6.5009 -7.8081,14.7028 -13.52755,20.112 -5.06597,4.7912 -12.23537,9.0622 -15.30244,9.1161 -0.95038,0.017 -1.25,-3.933 -1.25,-16.4781 v -16.5 h -11 -11 v 29 c 0,15.95 -0.23996,29 -0.53325,29 -2.32443,0 -10.88523,-5.74 -14.79535,-9.9202 -8.46659,-9.0515 -13.49114,-22.5144 -15.23825,-40.8298 l -0.69157,-7.25 h -11.37079 -11.37079 l 0.004,5.25 c 0.0103,13.4818 4.70631,31.6973 11.50899,44.6428 10.94431,20.8271 32.73687,33.66523 57.73699,34.01325 l 6.75002,0.094 z"
       id="path1"
       sodipodi:nodetypes="sssssssssssssccsscccssssssscsscscccsssscccssscc" />
  </g>
</svg>
