<svg xmlns="http://www.w3.org/2000/svg" viewBox="0 0 213.991 214.062"><path d="M53.447 213.475c-32.455-2.865-46.496-14.273-51.672-41.98C.212 163.13 0 155.432 0 106.995c0-48.436.212-56.133 1.775-64.5C6.312 18.21 18.209 6.311 42.495 1.775 50.863.212 58.56 0 106.996 0c48.437 0 56.134.212 64.5 1.775 24.287 4.536 36.185 16.434 40.721 40.72 1.563 8.367 1.775 16.064 1.775 64.5 0 48.437-.212 56.134-1.775 64.5-3.409 18.251-10.945 29.336-24.22 35.626-12.737 6.035-18.17 6.537-74.5 6.885-27.775.172-54.797-.067-60.05-.53zm98.549-65.925c10.956-2.34 13.943-7.566 15.56-27.228.819-9.972.83-17.404.037-27.458-1.558-19.77-4.586-25.09-15.597-27.408-7.728-1.626-63.812-2.398-79.34-1.092-14.365 1.209-18.99 2.678-22.077 7.014-3.915 5.5-4.581 10.603-4.581 35.117 0 36.254 2.018 39.98 22.727 41.962 12.202 1.168 76.85.464 83.27-.907zm-57.5-41.055V88.332l3.25 1.963c1.787 1.08 8.537 4.979 15 8.665 6.462 3.686 11.75 7.077 11.75 7.535 0 .459-5.288 3.85-11.75 7.536-6.463 3.686-13.213 7.586-15 8.665l-3.25 1.963z"/></svg>